<?xml version="1.0" encoding="UTF-8" standalone="no"?>
<!-- Created with Inkscape (http://www.inkscape.org/) -->

<svg
   width="800"
   height="800"
   viewBox="0 0 211.66666 211.66667"
   version="1.1"
   id="svg773"
   inkscape:version="1.2.1 (9c6d41e410, 2022-07-14)"
   sodipodi:docname="700 px kolecko lolmh logo.svg"
   xmlns:inkscape="http://www.inkscape.org/namespaces/inkscape"
   xmlns:sodipodi="http://sodipodi.sourceforge.net/DTD/sodipodi-0.dtd"
   xmlns="http://www.w3.org/2000/svg"
   xmlns:svg="http://www.w3.org/2000/svg">
  <sodipodi:namedview
     id="namedview775"
     pagecolor="#ffffff"
     bordercolor="#000000"
     borderopacity="0.25"
     inkscape:showpageshadow="2"
     inkscape:pageopacity="0.0"
     inkscape:pagecheckerboard="0"
     inkscape:deskcolor="#d1d1d1"
     inkscape:document-units="mm"
     showgrid="false"
     inkscape:zoom="1.4142136"
     inkscape:cx="370.52395"
     inkscape:cy="398.10112"
     inkscape:window-width="2256"
     inkscape:window-height="1398"
     inkscape:window-x="-11"
     inkscape:window-y="-11"
     inkscape:window-maximized="1"
     inkscape:current-layer="layer2" />
  <defs
     id="defs770">
    <inkscape:path-effect
       effect="envelope"
       id="path-effect3071"
       is_visible="true"
       lpeversion="1"
       yy="true"
       xx="true"
       bendpath1="M 46.697907,35.673617 C 81.530452,8.2484924 129.06329,9.652817 166.87758,36.236286"
       bendpath2="m 161.36647,29.671815 c 41.39322,43.733099 52.86154,100.175565 -0.4965,149.721975"
       bendpath3="m 43.669275,174.04844 c 45.957456,37.53289 93.939775,27.58227 124.697795,-0.65645"
       bendpath4="M 48.435646,31.688045 C 8.8820436,75.218393 -0.74038332,132.80134 53.499915,181.45691"
       bendpath1-nodetypes="cc"
       bendpath3-nodetypes="cc"
       bendpath2-nodetypes="cc"
       bendpath4-nodetypes="cc" />
    <inkscape:path-effect
       effect="envelope"
       id="path-effect2986"
       is_visible="true"
       lpeversion="1"
       yy="true"
       xx="true"
       bendpath1="m 70.908389,61.859605 h 9.710196"
       bendpath2="M 80.618585,61.859605 V 80.750831"
       bendpath3="m 70.908389,80.750831 h 9.710196"
       bendpath4="M 70.908389,61.859605 V 80.750831" />
    <rect
       x="121"
       y="112"
       width="590"
       height="549"
       id="rect3821" />
    <rect
       x="53"
       y="52"
       width="700"
       height="664"
       id="rect3718" />
    <rect
       x="-679"
       y="102"
       width="662"
       height="177"
       id="rect3712" />
    <inkscape:perspective
       sodipodi:type="inkscape:persp3d"
       inkscape:vp_x="0 : 105.83334 : 1"
       inkscape:vp_y="0 : 1000 : 0"
       inkscape:vp_z="211.66666 : 105.83334 : 1"
       inkscape:persp3d-origin="105.83333 : 70.555557 : 1"
       id="perspective1224" />
  </defs>
  <g
     inkscape:label="Layer 1"
     inkscape:groupmode="layer"
     id="layer1">
    <circle
       style="fill:#cefa05;fill-opacity:1;stroke-width:0.264583"
       id="path2305"
       cx="105.83334"
       cy="105.83334"
       r="92.604164" />
  </g>
  <g
     inkscape:groupmode="layer"
     id="layer2"
     inkscape:label="text">
    <path
       id="path3005"
       style="font-size:92.6042px;font-family:'Heavy Heap';-inkscape-font-specification:'Heavy Heap';text-align:center;text-anchor:middle;fill:#2c0000;stroke-width:0.264583"
       d="m 107.56795,15.675643 c -0.64741,-0.02742 -1.2814,0.01551 -1.89925,0.124171 -4.07266,0.716159 -7.182148,4.190742 -9.386332,8.851143 -2.189827,4.630048 -3.518706,10.44166 -4.500575,16.07074 -1.611859,9.240826 -3.332296,24.510064 -3.652859,29.919763 -0.04144,0.69926 -0.07768,1.43766 -0.106621,2.199751 -0.0075,0.208035 -0.01453,0.418159 -0.02101,0.630063 -0.193131,5.805167 0.02668,12.47213 1.818494,18.22855 1.779077,5.715509 5.083794,10.403796 9.757001,12.847726 0.321643,0.16786 0.649782,0.32479 0.984322,0.47013 1.43435,0.61413 2.98475,1.0225 4.66446,1.17114 0.53354,0.0414 1.08128,0.0574 1.64473,0.0466 1.20312,-0.0231 2.33391,-0.1644 3.40368,-0.41046 1.03446,-0.22224 2.01763,-0.54572 2.94932,-0.95574 0.33837,-0.14961 0.67024,-0.31083 0.9954,-0.48302 4.49808,-2.41215 7.61132,-6.87658 9.18004,-12.434511 1.58608,-5.619427 1.56972,-12.145003 1.21227,-18.547001 -0.0121,-0.207421 -0.0246,-0.414273 -0.0374,-0.620344 -0.0214,-0.355531 -0.0438,-0.709319 -0.067,-1.060053 -0.30331,-4.595977 -1.95174,-22.837659 -2.77206,-29.556088 -1.27305,-10.426343 -3.43804,-21.414446 -10.0012,-25.253056 -1.26669,-0.740446 -2.6631,-1.175866 -4.16541,-1.239504 z M 74.073305,28.111821 c -4.25427,3.829616 -9.722265,7.265778 -15.381231,8.425996 -3.336057,0.683968 -7.031709,0.624343 -10.779546,-1.191402 3.866023,10.595744 -0.431101,22.477952 -7.44576,34.331912 0,0 -1e-6,2e-6 -1e-6,2e-6 -0.06334,0.107039 -0.126893,0.214086 -0.190663,0.321141 -0.04785,0.08032 -0.09581,0.160652 -0.143898,0.240985 -6.656697,11.093855 -15.39191,22.038458 -21.956258,34.421345 -0.117965,0.22228 -0.235235,0.44507 -0.351801,0.66838 -0.08262,0.15833 -0.164881,0.31693 -0.246794,0.4758 6.254768,-0.23685 12.565106,-0.38333 18.467707,-0.47264 6.942282,-0.10541 13.61676,-0.1362 19.265562,-0.12739 5.763065,0.009 11.244204,0.0753 15.563463,0.13283 4.211835,0.0554 7.547375,0.10528 10.385428,0.12237 0.917907,0.007 1.763421,0.0121 2.532662,0.0134 0.0012,-0.082 0.0033,-0.1664 0.0063,-0.25321 0.0068,-0.15042 0.0164,-0.30804 0.02837,-0.47248 0.127163,-2.04109 0.628778,-5.150357 0.899606,-8.640766 0.329143,-4.241972 0.276851,-9.108765 -1.522339,-12.556821 -1.584586,-3.013682 -4.297713,-4.78997 -10.083094,-4.786435 1.028674,2.05233 1.248991,4.378245 0.830228,6.605418 -0.701691,3.731905 -3.457816,7.226523 -7.503662,7.10925 -4.677889,-0.135594 -8.047378,-4.756868 -5.691187,-12.086073 0.613462,-1.908243 1.573187,-3.977362 2.728024,-6.259491 0.09309,-0.185395 0.187268,-0.371883 0.282437,-0.559516 3.434157,-6.765878 6.926359,-12.875298 8.967833,-21.757138 1.97426,-8.589418 1.793384,-16.852165 1.338581,-23.705507 z m 81.761625,7.384129 c -4.86415,0.593424 -9.83883,-0.911243 -15.78079,-3.868043 -3.26556,-1.624988 -7.09467,-3.830723 -10.77071,-6.1228 -2.38251,22.073255 -1.36522,32.683663 0.28133,47.647655 0,10e-7 0,2e-6 0,2e-6 -6.1e-4,-0.0054 0.0393,0.350621 0.0387,0.345214 -2.8e-4,-0.0025 0.0292,0.260756 0.0289,0.258263 1.37666,12.597359 1.87178,20.892914 -0.65584,30.495439 -0.0434,0.15767 -0.0875,0.31518 -0.13231,0.47255 -0.0306,0.11057 -0.0615,0.22115 -0.0928,0.33173 2.76146,-0.1857 5.94024,-0.35165 9.57338,-0.50929 4.24039,-0.18477 9.27805,-0.36486 14.66972,-0.5346 5.38962,-0.16968 12.0337,-0.34163 18.44613,-0.5117 7.89138,-0.20976 17.04748,-0.45662 23.94597,-0.71802 -0.008,-0.1181 -0.0157,-0.23982 -0.0219,-0.36505 -0.0107,-0.21498 -0.0186,-0.44029 -0.0249,-0.67529 -0.0814,-3.036425 0.0613,-7.153008 -1.57113,-11.815212 -1.83898,-5.252214 -5.62757,-9.903472 -11.67559,-12.580717 -6.02895,-2.668804 -13.37355,-2.984955 -22.00018,-1.372351 2.85196,1.598471 4.90495,3.597114 5.9238,5.854676 1.71309,3.795832 -0.24597,7.923806 -5.32713,8.483613 -5.59054,0.615926 -10.93215,-3.445503 -13.0796,-10.487993 -0.5621,-1.843394 -0.93798,-3.963561 -1.15933,-6.243555 -0.0186,-0.186991 -0.0361,-0.375197 -0.0527,-0.564538 -0.52544,-6.143371 -0.0262,-13.732336 1.69381,-20.629966 1.8275,-7.328497 4.72954,-12.806413 7.74317,-16.890017 z m -48.69329,9.468314 c 1.43054,0.0405 2.29221,2.843751 2.76059,8.205623 0.35829,4.115873 0.4999,9.92177 0.53572,16.457268 0.004,0.669765 0.006,1.319721 0.007,1.951822 0,0 0,3e-6 0,3e-6 6.6e-4,0.222582 0.001,0.442823 0.001,0.66081 0,10e-7 0,2e-6 0,2e-6 -0.009,5.141392 -0.14113,8.939254 -0.50892,11.863865 -0.55175,4.387818 -1.64244,6.622159 -3.31086,6.646687 -0.50685,0.0075 -0.97672,-0.202746 -1.40304,-0.613285 0,-10e-7 0,-10e-7 0,-10e-7 -1.9762,-1.947476 -2.918,-7.884207 -2.87396,-17.890421 0,0 0,-2e-6 0,-2e-6 4.3e-4,-0.219471 0.001,-0.440964 0.002,-0.664479 0.002,-0.220174 0.004,-0.442293 0.006,-0.666367 0.13072,-12.029158 1.28837,-21.116938 3.07704,-24.478148 0,0 0,0 0,0 0.53367,-0.998138 1.11167,-1.490233 1.70699,-1.473377 z M 55.107188,108.11403 c -4.788763,0.0663 -11.557543,0.55135 -18.822235,1.33508 -7.591073,0.81894 -14.641989,1.84563 -20.366772,2.8371 11.350733,7.39287 21.528835,17.04351 28.470468,25.92283 0.06033,0.0776 0.120482,0.15521 0.180463,0.23288 2.077341,2.70128 3.937502,5.45919 5.490171,8.25222 6.221423,11.19147 6.668596,21.46416 0.621184,30.00925 5.354753,-2.28147 11.584728,0.0227 18.319,3.94533 3.187314,-9.68447 3.945896,-18.11 3.564027,-26.34518 -0.386893,-8.3435 -1.565177,-14.69605 -1.635182,-19.59939 -0.0011,-0.0827 -0.0019,-0.16504 -0.0024,-0.24691 -0.05517,-7.04901 2.022504,-11.02073 5.140032,-11.06002 2.205737,-0.0278 2.632993,2.1058 3.154811,5.40473 0.259388,1.63984 0.538883,3.59208 0.78667,5.68569 -1.01e-4,-8.7e-4 0.02949,0.25591 0.02939,0.25504 0.684987,5.96339 1.227516,14.06714 0.127243,22.75956 -1.136168,8.97599 -3.971394,17.96542 -8.841487,25.32843 3.243281,1.58909 5.294866,2.67628 8.27626,4.24862 2.445753,1.29096 7.665886,4.11853 13.19119,5.93076 0.208931,-6.59605 1.123255,-17.11718 1.60419,-23.08251 0.609448,-7.55935 0.963502,-12.56756 1.323751,-19.68384 0.305051,-6.02591 0.490204,-10.90575 0.659008,-13.69669 0.01537,-0.26176 0.03119,-0.52095 0.04752,-0.77748 0,0 0,0 0,0 0.0061,-0.0924 0.01224,-0.18438 0.0185,-0.27604 0,0 0,0 0,0 0.463981,-6.8564 1.415368,-11.82299 3.669554,-11.79345 1.33067,0.0174 1.45241,1.81147 1.5132,4.76961 0.0437,2.12782 0.0472,4.57552 0.005,7.28233 0,-3.5e-4 -0.005,0.28254 -0.005,0.28218 -0.10633,6.78199 -0.52759,16.8009 -1.62216,27.10309 -1.138295,10.71381 -3.069174,22.3339 -6.387982,32.1338 3.546382,0.60681 7.485312,0.9591 11.598312,0.82087 1.96224,-0.0669 4.07823,-0.24864 6.32593,-0.60767 2.7182,-0.43177 5.68616,-1.13321 8.94157,-2.25074 -5.04494,-10.75475 -6.49302,-23.85381 -6.78137,-33.78349 -0.2656,-9.1465 0.39065,-17.21321 1.21029,-23.76956 8e-5,-5.8e-4 0.0362,-0.28143 0.0363,-0.28201 0.98113,-7.5732 2.17988,-13.35983 2.30646,-17.35026 0.23998,-7.56524 -3.49842,-9.5549 -6.96923,-9.90721 -0.44411,-0.0381 -0.89022,-0.0494 -1.33289,-0.0408 -1.34816,0.0261 -2.5755,0.2342 -3.7177,0.59143 0,0 0,0 0,0 -3.4036,1.04312 -6.115359,3.4523 -8.68593,6.31818 -1.282268,-5.5975 -5.042663,-6.72679 -9.19838,-6.68856 -2.088567,0.0192 -4.113573,0.32662 -6.076835,0.8772 0,0 -10e-7,0 -10e-7,0 -5.276554,1.48216 -10.183002,4.65354 -14.887911,9.0691 0.388744,-1.33688 0.87157,-3.364 0.67213,-5.45446 -0.297698,-3.12037 -1.923102,-4.83776 -11.949325,-4.69903 z m 94.012852,-0.0525 c 2.20545,4.68682 1.99269,10.32947 1.00629,14.41825 -1.35376,5.61153 -4.52858,10.13491 -7.8537,10.1121 -3.04804,-0.0209 -3.82047,-4.2933 -3.10545,-8.28747 0.70292,-3.92661 3.46966,-11.1604 8.12729,-15.65075 -4.03681,0.3747 -8.42716,0.52238 -11.6088,0.57664 -7.60326,0.12966 -13.08074,-0.16214 -16.65377,-0.19211 1.94263,3.20754 3.0419,7.05303 3.5192,11.49666 0.47607,4.43223 0.31642,9.24657 0.0736,14.20669 -5.7e-4,0.0114 -0.0129,0.25921 -0.0135,0.2706 -0.0825,1.7257 -0.1468,2.95145 -0.22933,4.67715 -0.39867,8.41023 -0.56753,15.84322 -0.40836,24.61209 0.15976,8.80194 0.61267,17.37155 1.35359,29.07703 2.54156,-1.59243 5.96912,-3.74103 8.6707,-5.27419 4.39719,-2.49542 8.64365,-4.51392 13.23361,-5.88111 -4.52554,-6.35835 -6.8647,-11.92809 -8.03042,-15.57486 -1.26361,-3.95304 -1.80949,-7.6381 -1.82462,-11.54934 -0.005,-1.34538 0.0521,-3.8264 0.77535,-6.06474 0.71243,-2.20472 2.04506,-4.05169 4.38258,-4.16842 4.00565,-0.20004 3.41277,4.89012 3.09213,8.25193 -0.72123,7.56174 -1.47421,16.08361 2.7406,26.73973 2.82611,-2.28957 6.00195,-4.33615 9.20383,-5.20932 2.30192,-0.62774 4.64905,-0.66895 6.95979,0.16831 -3.22644,-4.83203 -4.31151,-10.22433 -3.41053,-16.17154 0.89099,-5.88133 3.60707,-11.62313 6.71256,-17.1913 0.90893,-1.62971 1.8269,-3.20304 2.709,-4.66808 0,0 0,0 0,0 1.6e-4,-2.7e-4 0.14966,-0.24655 0.14982,-0.24682 0,0 0,0 0,0 6.02256,-9.86945 12.3049,-16.26116 18.55989,-28.70351 -6.51326,0.42186 -12.62247,0.5137 -17.84322,0.53633 -7.40316,0.0321 -14.01753,-0.0816 -20.28819,-0.30995 z"
       inkscape:path-effect="#path-effect3071"
       inkscape:original-d="M 107.00432 34.548279 C 92.280264 34.548279 86.908907 53.902454 86.908907 67.052238 C 86.908907 78.164731 90.705895 102.89036 107.09682 102.89036 C 122.46911 102.89036 126.08068 81.405875 126.08068 67.97828 C 126.08068 52.050373 120.98754 34.548279 107.00432 34.548279 z M 77.463489 35.659322 C 72.925887 36.492759 67.925153 36.770882 62.276302 36.770882 C 59.127762 36.770882 55.423798 36.678178 51.904842 36.400362 C 54.497757 46.679418 55.79401 57.88464 55.79401 69.18234 C 55.79401 80.109626 54.590258 91.129326 52.460364 101.7788 C 57.090569 101.40838 62.554118 101.22328 67.832552 101.22328 C 74.407445 101.22328 81.167451 101.5937 85.519845 101.6863 C 85.519845 99.371201 85.890365 95.38911 85.890365 91.129321 C 85.890365 82.517139 84.315984 73.442029 75.333386 73.442029 C 76.352031 75.386715 76.815466 77.609322 76.815466 79.83182 C 76.815466 83.535985 75.333489 87.240153 72.925781 87.240153 C 70.240263 87.240153 67.832552 82.609631 67.832552 75.479114 C 67.832552 63.625788 74.407554 43.623275 77.463489 35.659322 z M 152.19484 35.659322 C 147.65725 36.492759 142.6565 36.770882 137.00766 36.770882 C 133.85911 36.770882 130.15514 36.678178 126.6362 36.400362 C 129.22911 46.679418 130.52537 57.88464 130.52537 69.18234 C 130.52537 80.109626 129.32162 91.129326 127.19172 101.7788 C 131.82192 101.40838 137.28547 101.22328 142.56391 101.22328 C 149.1388 101.22328 155.8988 101.5937 160.2512 101.6863 C 160.2512 99.371201 160.62172 95.38911 160.62172 91.129321 C 160.62172 82.517139 159.04734 73.442029 150.06474 73.442029 C 151.08338 75.386715 151.54682 77.609322 151.54682 79.83182 C 151.54682 83.535985 150.06484 87.240153 147.65714 87.240153 C 144.97162 87.240153 142.56391 82.609631 142.56391 75.479114 C 142.56391 63.625788 149.13892 43.623275 152.19484 35.659322 z M 107.28182 50.383488 C 110.05995 50.383488 111.35651 55.569535 111.35651 67.330257 C 111.35651 79.090979 110.05985 86.128593 106.9113 86.128593 C 103.76277 86.128593 102.00359 78.813064 102.00359 68.3488 C 102.00359 56.125058 104.4111 50.383488 107.28182 50.383488 z M 67.740051 104.43704 C 62.924637 104.43704 55.423385 106.10412 51.811825 107.03016 C 56.627239 116.10536 58.849638 129.34756 58.849638 142.40474 C 58.849638 153.42463 57.275675 164.35204 54.404948 172.4086 C 60.424215 171.66776 67.091515 171.20464 73.573804 171.11204 C 72.925574 164.81495 72.46276 159.07328 72.46276 151.85016 C 72.46276 134.16277 75.240991 122.03183 78.852551 122.03183 C 80.426822 122.03183 80.519116 124.34673 80.519116 127.77308 C 80.519116 139.16339 79.500779 159.81444 76.074426 171.48256 C 82.093693 171.01954 85.057036 171.01954 95.05828 171.01954 C 94.317447 167.40797 94.039221 162.96276 94.039221 158.70297 C 94.039221 151.01683 94.965676 139.3489 95.521301 134.44089 C 96.262134 127.77339 97.465784 122.03183 99.87349 122.03183 C 101.26256 122.03183 101.35505 123.88381 101.35505 126.75454 C 101.35505 139.5339 99.503278 160.27746 95.984322 171.94558 C 102.00359 171.48256 108.11516 171.20454 118.0238 171.20454 C 115.33828 165.27787 114.50516 158.51786 114.50516 151.66516 C 114.50516 138.51537 117.56078 124.43963 117.56078 116.38308 C 117.56078 106.93746 113.30098 105.08506 109.22641 105.08506 C 103.67016 105.08506 99.966195 108.51163 96.539844 112.77141 C 95.428594 106.47434 91.816822 105.08506 88.39047 105.08506 C 82.000787 105.08506 77.64828 109.62277 73.203284 116.10506 C 73.5737 114.6234 74.036825 112.40099 74.036825 109.99329 C 74.036825 106.38172 72.925881 104.43704 67.740051 104.43704 z M 140.43432 105.7336 C 141.63818 110.82682 142.10089 117.58672 142.10089 121.66131 C 142.10089 127.68057 141.08224 132.40329 138.85974 132.40329 C 136.82245 132.40329 135.6186 128.05121 135.6186 123.79141 C 135.6186 119.53162 136.73025 111.66006 139.41578 106.38162 C 137.10067 106.75204 134.41495 106.84464 132.19245 106.84464 C 127.00661 106.84464 122.28401 106.38172 119.04286 106.28912 C 123.11745 114.9013 123.48755 128.05101 123.48755 137.86704 C 123.48755 151.75765 122.6541 161.01798 120.24641 171.76006 C 122.6541 171.48225 125.33985 171.29704 127.93276 171.29704 C 131.82214 171.29704 135.6189 171.66766 139.50828 172.5011 C 136.73015 162.59246 135.80411 158.51777 135.80411 152.22068 C 135.80411 150.18339 135.89681 144.07183 139.41578 144.07183 C 142.37911 144.07183 142.65693 148.60933 142.65693 151.57266 C 142.65693 157.68453 141.45267 165.18527 141.17485 171.66756 C 144.13818 171.38975 147.56494 171.20454 150.9913 171.20454 C 153.49161 171.20454 155.99173 171.29734 158.58464 171.48256 C 154.69527 161.85173 153.86193 149.44245 153.86193 138.42256 C 153.86193 125.55058 154.97287 118.51286 157.38057 105.8261 C 154.97287 106.19651 152.65787 106.28912 150.34276 106.28912 C 147.10161 106.28912 143.95328 106.10402 140.43432 105.7336 z "
       class="UnoptimicedTransforms" />
  </g>
</svg>
