<?xml version="1.0" encoding="UTF-8" standalone="no"?>
<!-- Created with Inkscape (http://www.inkscape.org/) -->

<svg
   width="2560"
   height="1440"
   viewBox="0 0 677.33332 381"
   version="1.1"
   id="svg41166"
   inkscape:version="1.2.1 (9c6d41e410, 2022-07-14)"
   sodipodi:docname="big banner one treecko brown.svg"
   xmlns:inkscape="http://www.inkscape.org/namespaces/inkscape"
   xmlns:sodipodi="http://sodipodi.sourceforge.net/DTD/sodipodi-0.dtd"
   xmlns="http://www.w3.org/2000/svg"
   xmlns:svg="http://www.w3.org/2000/svg">
  <sodipodi:namedview
     id="namedview41168"
     pagecolor="#ffffff"
     bordercolor="#000000"
     borderopacity="0.25"
     inkscape:showpageshadow="2"
     inkscape:pageopacity="0.0"
     inkscape:pagecheckerboard="0"
     inkscape:deskcolor="#d1d1d1"
     inkscape:document-units="mm"
     showgrid="false"
     inkscape:zoom="0.5"
     inkscape:cx="1137"
     inkscape:cy="813"
     inkscape:window-width="2256"
     inkscape:window-height="1398"
     inkscape:window-x="-11"
     inkscape:window-y="-11"
     inkscape:window-maximized="1"
     inkscape:current-layer="layer1" />
  <defs
     id="defs41163" />
  <g
     inkscape:label="Layer 1"
     inkscape:groupmode="layer"
     id="layer1">
    <rect
       style="fill:#2c0000;fill-opacity:1;stroke-width:0.264999;paint-order:stroke fill markers"
       id="rect41170"
       width="677.33331"
       height="381"
       x="1.0172526e-05"
       y="-5.3290705e-14" />
  </g>
  <g
     inkscape:groupmode="layer"
     id="layer11"
     inkscape:label="Layer 2">
    <path
       id="path42397"
       style="font-size:79.375px;font-family:'Heavy Heap';-inkscape-font-specification:'Heavy Heap';text-align:center;text-anchor:middle;fill:#cefa0f;stroke-width:0.265;paint-order:stroke fill markers;fill-opacity:1"
       d="m 357.68618,161.21083 c -12.62061,0 -17.22427,16.58908 -17.22427,27.86032 0,9.52499 3.25449,30.71802 17.30385,30.71802 13.17624,0 16.27188,-18.41491 16.27188,-29.92427 0,-13.65249 -4.36584,-28.65407 -16.35146,-28.65407 z m 60.72188,0 c -4.1275,0 -10.55678,1.42834 -13.6524,2.22209 4.1275,7.77874 6.03219,19.1298 6.03219,30.32166 0,9.44562 -1.34949,18.81168 -3.8101,25.71729 5.15936,-0.63499 10.87479,-1.03166 16.43103,-1.11104 -0.55562,-5.39749 -0.95291,-10.31886 -0.95291,-16.5101 0,-15.16061 2.38156,-25.55865 5.47719,-25.55865 1.34936,0 1.42885,1.98428 1.42885,4.92115 0,9.76312 -0.87324,27.46366 -3.8101,37.46489 5.15936,-0.39686 7.69938,-0.39687 16.27187,-0.39687 -0.635,-3.09563 -0.87333,-6.90573 -0.87333,-10.55698 0,-6.58811 0.79396,-16.58927 1.27021,-20.79615 0.635,-5.71499 1.66677,-10.63604 3.73052,-10.63604 1.19063,0 1.2702,1.58719 1.2702,4.04782 0,10.95374 -1.5876,28.73386 -4.60385,38.7351 5.15938,-0.39688 10.39824,-0.6351 18.89135,-0.6351 -2.30186,-5.08 -3.01635,-10.87407 -3.01635,-16.74782 0,-11.27124 2.61948,-23.33647 2.61948,-30.24208 0,-8.09624 -3.65125,-9.68365 -7.14375,-9.68365 -4.7625,0 -7.93791,2.93699 -10.87479,6.58823 -0.9525,-5.39749 -4.04771,-6.58823 -6.98459,-6.58823 -5.47686,0 -9.20781,3.88918 -13.01781,9.44542 0.3175,-1.27 0.71469,-3.17469 0.71469,-5.23844 0,-3.09562 -0.95261,-4.7625 -5.3976,-4.7625 z m -86.0423,0.9524 c -3.88937,0.71438 -8.17543,0.95239 -13.01729,0.95239 -2.69875,0 -5.87417,-0.0792 -8.89041,-0.31729 2.22249,8.81062 3.33416,18.4148 3.33416,28.09854 0,9.36625 -1.03209,18.81179 -2.85771,27.9399 3.96875,-0.3175 8.65208,-0.47594 13.17646,-0.47594 5.63561,0 11.4297,0.3175 15.16031,0.39688 0,-1.98438 0.31781,-5.39782 0.31781,-9.04906 0,-7.38188 -1.34968,-15.16032 -9.04906,-15.16032 0.87313,1.66688 1.27021,3.57167 1.27021,5.47667 0,3.175 -1.2699,6.35 -3.33365,6.35 -2.30186,0 -4.36562,-3.96865 -4.36562,-10.08052 0,-10.15999 5.63542,-27.30501 8.25479,-34.13125 z m 64.05552,0 c -3.88936,0.71438 -8.17593,0.95239 -13.01781,0.95239 -2.69874,0 -5.87365,-0.0792 -8.88989,-0.31729 2.2225,8.81062 3.33364,18.4148 3.33364,28.09854 0,9.36625 -1.03156,18.81179 -2.85719,27.9399 3.96875,-0.3175 8.65158,-0.47594 13.17594,-0.47594 5.63563,0 11.43021,0.3175 15.16084,0.39688 0,-1.98438 0.31729,-5.39782 0.31729,-9.04906 0,-7.38188 -1.34918,-15.16032 -9.04854,-15.16032 0.87311,1.66688 1.2702,3.57167 1.2702,5.47667 0,3.175 -1.27041,6.35 -3.33416,6.35 -2.30188,0 -4.36563,-3.96865 -4.36563,-10.08052 0,-10.15999 5.63595,-27.30501 8.25531,-34.13125 z m 84.29615,0.15864 c 1.03188,4.36563 1.42885,10.15991 1.42885,13.6524 0,5.15938 -0.87312,9.20771 -2.77812,9.20771 -1.74625,0 -2.77813,-3.73073 -2.77813,-7.38198 0,-3.65125 0.95219,-10.39824 3.25407,-14.9226 -1.98438,0.3175 -4.28584,0.39687 -6.19084,0.39687 -4.44499,0 -8.49354,-0.39656 -11.27166,-0.47594 3.4925,7.38187 3.8101,18.65283 3.8101,27.06657 0,11.90623 -0.71437,19.84396 -2.77812,29.05145 2.06375,-0.23813 4.36573,-0.39687 6.58823,-0.39687 3.33374,0 6.58812,0.3176 9.92187,1.03198 -2.38125,-8.49312 -3.175,-11.98594 -3.175,-17.38344 0,-1.74625 0.0792,-6.9851 3.09542,-6.9851 2.54,0 2.77812,3.88958 2.77812,6.42958 0,5.23874 -1.03156,11.66803 -1.26969,17.22427 2.54,-0.23812 5.47658,-0.39687 8.41344,-0.39687 2.14313,0 4.28667,0.0795 6.50917,0.23822 -3.33375,-8.25499 -4.04833,-18.89116 -4.04833,-28.33677 0,-11.03312 0.9526,-17.06553 3.01635,-27.93989 -2.06375,0.3175 -4.04834,0.39687 -6.03271,0.39687 -2.77812,0 -5.47677,-0.15896 -8.49302,-0.47646 z m -122.79302,12.46178 c 2.38125,0 3.49229,4.44512 3.49229,14.52572 0,10.08062 -1.11084,16.11323 -3.80958,16.11323 -2.69875,0 -4.20698,-6.27053 -4.20698,-15.23989 0,-10.47749 2.06364,-15.39906 4.52427,-15.39906 z" />
    <path
       id="path-1-2"
       style="font-size:79.375px;font-family:'Heavy Heap';-inkscape-font-specification:'Heavy Heap';text-align:center;text-anchor:middle;display:inline;fill:#cefa0f;fill-opacity:1;fill-rule:nonzero;stroke:none;stroke-width:0;stroke-dasharray:none;paint-order:stroke fill markers"
       d="m 233.50409,138.89514 c -28.95286,0 -52.44589,23.10613 -52.44589,51.60487 0,28.49872 23.49303,51.60485 52.44589,51.60485 28.95286,0 52.4459,-23.10613 52.4459,-51.60485 0,-28.49874 -23.49304,-51.60487 -52.4459,-51.60487 z m 0,1.16953 c 28.33106,0 51.27638,22.57908 51.27638,50.43534 0,14.46803 -6.19917,27.50268 -16.11829,36.69946 -0.0203,-0.0274 -0.0432,-0.0529 -0.0685,-0.0759 -5.01711,-5.01546 -10.48909,-4.34296 -9.74902,-12.79111 0.35532,-2.70108 2.0077,-5.06957 3.038,-7.11759 2.00309,-4.38072 3.37151,-9.20871 3.67849,-13.72307 0.17859,-2.82975 0.0126,-5.69364 -0.42258,-8.56488 -2.22226,-9.5689 -5.4671,-20.94198 -10.5197,-28.46627 -1.85889,-2.54619 -4.04088,-5.17584 -6.08833,-7.27064 -1.65627,-1.68781 -3.1627,-2.89679 -4.44918,-3.78539 -0.52625,-0.3635 -0.99564,-0.65945 -1.38743,-0.89405 -1.76997,-1.0598 -3.22384,-1.61878 -3.82468,-1.84107 -0.8817,-0.0977 -2.06701,0.19605 -2.89592,0.68344 -0.009,0.005 -0.0183,0.0117 -0.027,0.0179 -2.65003,2.12792 -5.09553,4.86164 -6.58903,7.6626 -1.08261,-1.28875 -2.361,-2.61637 -3.50215,-3.52361 -1.32917,-1.03237 -2.83646,-1.81864 -4.3738,-2.14031 -0.0432,-0.009 -0.0875,-0.0129 -0.13157,-0.0114 -0.92287,0.0317 -1.7034,0.2825 -2.34679,0.60212 -0.0893,0.0444 -0.17589,0.0906 -0.26041,0.13751 -0.60421,0.33535 -1.14584,0.75938 -1.6332,1.21931 -1.9681,1.94501 -3.48475,4.36391 -4.57984,6.85765 -1.60494,3.75285 -2.14271,8.09394 -2.65197,11.75226 -1.1e-4,7e-4 2e-5,0.002 0,0.003 -0.70511,5.26497 -0.23666,10.25646 0.0306,12.67188 0.18131,1.63852 0.37561,2.9383 0.51212,3.81645 -1.52006,3.0995 -1.87326,7.14052 -0.99546,10.10123 0.003,0.01 0.006,0.0199 0.0101,0.0297 0.17545,0.48725 0.31799,0.87632 0.50994,1.15502 -1.18935,0.43261 -2.72658,1.19922 -4.32914,2.76469 -0.80683,0.78815 -1.60067,1.76713 -2.28741,2.95623 -0.34461,0.59669 -0.68591,1.28744 -0.98541,2.0704 -0.62295,1.62858 -1.07411,3.67847 -0.94429,5.99514 0.10601,1.89165 0.60834,3.97724 1.76524,5.98737 0.92641,1.70607 2.10745,3.12399 3.55331,4.21573 1.34749,1.01746 2.88599,1.72151 4.58304,2.12798 1.62037,0.38809 3.35604,0.49801 5.16094,0.37186 2.83274,-0.30653 5.15414,-0.52603 7.34739,-2.12568 0.56466,-0.41484 1.07287,-0.86558 1.54367,-1.31937 0.14735,-0.14202 0.27337,-0.27889 0.41435,-0.42075 0.004,0.0113 0.008,0.025 0.0119,0.0361 0.48639,0.64552 0.92241,1.42869 1.28556,2.22345 0.0497,0.10865 0.099,0.21483 0.14481,0.30837 0.044,0.0898 0.0915,0.18254 0.13751,0.25995 l -0.0141,-0.0201 c 0.76905,1.1901 1.76981,2.31385 2.98272,3.28103 0.90862,0.72454 1.94218,1.36506 3.07821,1.86483 0.26053,0.11462 0.53283,0.22495 0.81683,0.32847 1.27119,0.46334 2.76995,0.79168 4.39938,0.78166 0.91396,-0.005 1.8566,-0.11885 2.80273,-0.36639 0.004,0.003 0.009,0.006 0.0137,0.009 h 4.6e-4 c 0.79551,0.56463 1.10874,1.48357 1.58753,2.19285 -0.39274,0.48141 -0.81683,0.9628 -1.27687,1.44544 -1.62306,1.70282 -3.47854,3.22237 -5.28566,4.6269 -0.006,0.005 -0.0134,0.0106 -0.0196,0.016 -3.0375,2.34081 -6.73692,5.82426 -8.76223,7.28708 -25.57916,-2.84946 -45.44159,-24.18637 -45.44159,-50.10146 0,-27.85625 22.94532,-50.43534 51.27638,-50.43534 z m 8.60233,5.42773 c 0.37341,0.22359 0.8211,0.50576 1.32439,0.85339 1.22912,0.84897 2.67996,2.01168 4.28334,3.64559 2.56046,2.73504 5.07006,6.12534 6.92801,9.04364 4.14017,7.65069 8.16531,18.23537 9.42145,26.05597 0.43074,2.80545 0.59681,5.5915 0.42898,8.33464 -0.60536,4.79587 -1.40872,9.00427 -3.54006,13.32561 -1.24557,2.44015 -2.81755,4.89672 -3.12206,7.47439 -0.12963,8.76789 3.16881,7.90062 8.36986,12.31382 0.778,0.67098 1.20087,1.02409 1.69214,1.37372 -3.67992,3.2743 -7.84649,6.02824 -12.37904,8.14959 -0.30934,-0.8721 -0.88719,-2.21152 -1.1951,-4.29933 -0.52279,-3.74914 -0.32974,-6.46884 -0.66882,-10.05007 -0.16531,-1.70607 -0.39421,-4.15082 -0.83921,-5.76626 1.94436,-4.56642 2.2159,-8.02782 2.07177,-13.12551 0.68566,-0.76795 2.04438,-2.5729 2.1717,-2.72038 -2.23038,2.03837 -9.94242,7.08152 -13.60508,8.86262 -4.73613,2.01556 -6.67778,2.77085 -11.15105,2.26135 -0.75541,-0.0818 -1.45219,-0.0406 -2.10376,0.11102 -0.63723,0.14821 -1.21264,0.39749 -1.74604,0.71816 -0.52261,0.31417 -0.99965,0.6939 -1.4523,1.10555 -0.8916,0.81083 -1.69704,1.74948 -2.58619,2.61359 -0.44159,0.42917 -0.90143,0.83859 -1.40113,1.20882 -1.88021,1.38981 -4.54794,1.72724 -6.64111,1.88995 -1.69401,0.12374 -3.29372,0.0236 -4.7644,-0.32346 -1.53645,-0.36256 -2.9109,-0.98921 -4.10884,-1.88767 -1.28725,-0.96543 -2.35822,-2.23472 -3.21251,-3.8 -0.003,-0.004 -0.005,-0.01 -0.008,-0.0146 -1.05223,-1.81509 -1.51472,-3.70457 -1.61539,-5.42866 -0.12326,-2.11091 0.2879,-3.99536 0.85201,-5.47799 0.27268,-0.71666 0.58343,-1.34779 0.89724,-1.89269 0.62536,-1.08589 1.34726,-1.97657 2.07726,-2.68989 2.45918,-2.47318 5.1445,-2.93397 7.81833,-3.72399 -1.95384,-4.86923 -2.96876,-10.20218 -3.52356,-15.12849 -0.26556,-2.39994 -0.72304,-7.30322 -0.0329,-12.45762 0.64212,-4.16125 1.0268,-7.89619 2.58756,-11.52292 0.78203,-1.83394 1.89097,-3.33349 3.07317,-4.81329 0.4465,-0.55701 0.92786,-1.1091 1.45093,-1.593 0.44357,-0.41037 0.91501,-0.76994 1.42124,-1.04663 0.0706,-0.0386 0.14271,-0.0758 0.21653,-0.11192 0.51354,-0.25127 1.11717,-0.44324 1.82417,-0.47558 1.46207,0.33563 2.75416,1.07079 3.83519,1.916 1.64195,1.16618 2.30925,2.25018 3.50122,3.55626 -4.22789,7.92712 -5.955,15.34632 -6.27647,23.65648 0.0923,6.35823 0.49394,11.35888 1.91916,15.67054 0.13655,0.74747 -0.28162,-1.62199 -0.38237,-2.37512 -0.0322,-0.20335 -0.0948,-0.60071 -0.16904,-1.06947 -7e-4,-0.004 -0.002,-0.008 -0.003,-0.0118 -0.064,-0.3567 -0.13471,-0.75176 -0.20422,-1.13891 -0.33097,-3.1815 -0.33798,-9.30426 -0.23253,-12.35071 1.26133,-9.91326 3.52135,-18.23551 8.96193,-25.80106 2.09754,-2.53998 4.40249,-6.26204 9.8357,-3.04358 z m 11.141,31.34528 c -0.10307,-0.007 -0.20627,0.0125 -0.29923,0.0576 -4.73682,1.70325 -8.03351,3.60046 -12.9638,6.80284 -0.005,0.003 2.57355,-1.56556 -0.016,0.009 -2.4736,1.41609 -4.97617,3.43101 -6.99059,4.81466 -0.58774,1.10789 1.64582,6.53612 2.04436,7.23638 1.70053,2.70324 3.94132,4.92447 6.15321,6.31993 2.24277,1.14457 5.45356,1.69856 7.65626,1.09967 1.15938,-0.32409 2.286,-0.86228 3.20748,-1.62957 2.54428,-2.41739 3.5126,-7.27387 3.65245,-10.24924 0.0359,-3.76099 -0.12822,-7.32839 -0.85384,-10.79973 -0.20697,-0.92227 -1.07593,-3.54944 -1.59027,-3.66113 z m -0.2572,1.34085 c 1.64252,7.23352 4.14728,21.58871 -4.42451,24.04861 -7.55823,1.68101 -13.6452,-7.06616 -14.52529,-13.00676 0.27896,-0.19209 0.62423,-0.43358 1.1412,-0.80768 2.56035,-1.87918 5.0458,-3.14188 7.38438,-4.42498 0.22665,3.7423 0.63302,7.42618 1.76981,10.47402 0.004,0.0211 0.009,0.0421 0.0133,0.063 0.0172,0.0788 0.038,0.15919 0.0617,0.2403 0.038,0.13021 0.0852,0.26715 0.13933,0.40887 0.10184,0.26652 0.23444,0.56213 0.39289,0.86846 0.14804,0.28621 0.3226,0.58972 0.51669,0.88536 0.18236,0.27778 0.38997,0.56078 0.61445,0.815 0.20867,0.23632 0.46134,0.48174 0.74785,0.66516 0.35687,0.22069 0.775,0.34146 1.15489,0.29649 0.50156,-0.0905 0.88363,-0.37427 1.13068,-0.78211 0.22674,-0.39915 0.33603,-0.84716 0.39609,-1.2595 0.002,-0.0111 0.021,-0.0295 0.0223,-0.0407 0.028,-0.26956 0.19434,-2.5593 -0.0334,-5.5287 -0.22776,-2.96942 -0.51631,-6.07365 -1.47572,-8.16438 -0.19222,-0.43633 -0.62398,-1.0462 -1.15713,-1.40379 -0.49686,-0.3671 4.68849,-2.75082 5.13104,-2.89995 0.33794,-0.14114 0.72643,-0.284 1.05125,-0.31241 z m -7.2181,5.28749 c 0.40969,0.89278 0.47417,2.04829 0.40469,2.95576 -0.005,0.18443 -0.028,0.41669 -0.0521,0.53268 -0.0764,0.31131 -0.22491,0.48039 -0.44023,0.47479 -0.2822,-0.007 -0.6189,-0.52395 -0.77136,-0.86362 -8.8e-4,-7e-4 -0.003,-0.003 -0.004,-0.004 -0.37711,-1.07631 -0.57172,-3.13071 -0.0242,-3.75614 0.47475,-0.27449 0.76226,0.34514 0.88686,0.65973 z m -35.11834,2.32988 c 0.17118,0.82753 0.40125,1.74798 0.71998,2.72278 8.9e-4,0.003 0.002,0.005 0.003,0.008 0.5036,1.46456 1.1008,2.97875 1.60717,4.35462 -0.15155,0.0382 -0.3142,0.0812 -0.46552,0.12197 -0.26043,0.0702 -0.67922,0.1861 -0.82323,0.22569 -0.0793,0.0218 -0.15288,0.042 -0.2234,0.0612 -0.043,0.0118 -0.0648,0.0173 -0.1037,0.0279 -0.0247,-0.0625 -0.0588,-0.12087 -0.10096,-0.17315 -1.31912,-2.00358 -0.9879,-5.225 -0.63638,-7.22815 0.007,-0.0392 0.0159,-0.0812 0.0232,-0.12106 z m 43.97925,17.27958 c 0.0225,5.0276 -1.03682,8.78798 -2.78675,12.62574 -0.0243,0.0532 -0.0466,0.1084 -0.0512,0.16676 -0.004,0.0583 0.009,0.11644 0.0251,0.17268 0.46097,1.59572 0.73351,3.24592 0.91231,4.97775 0.4556,3.53478 0.23572,7.28057 0.68024,10.46625 0.33072,2.19984 0.96067,4.0249 1.28783,4.93937 -6.46147,2.88909 -13.63334,4.51131 -21.19654,4.51131 -3.95015,-0.0828 -5.02513,0.13597 -2.03478,-2.20654 1.18982,-0.93211 4.18174,-2.75291 6.36746,-4.59218 4.46922,-3.34243 9.58152,-9.05026 8.95247,-11.93846 0.99241,-0.56992 3.23345,-5.50783 2.33472,-4.6659 -0.46221,0.58793 -2.06141,2.43137 -3.41124,3.49255 -7.18531,4.6641 -13.2667,3.04989 -17.41298,-2.55329 -0.003,-0.004 -0.004,-0.007 -0.006,-0.0105 -8.8e-4,-0.002 -0.003,-0.004 -0.004,-0.005 -0.002,-0.002 -0.003,-0.003 -0.004,-0.004 -0.0308,-0.0241 -0.0772,-0.0745 -0.12882,-0.13934 -0.66456,-0.9417 -1.10897,-1.8393 -1.6122,-2.77486 0.13725,-0.14273 1.3668,-1.14227 1.538,-1.28239 1.58667,5.61849 6.45647,9.58394 14.12757,6.82661 5.93136,-2.7561 7.65336,-9.08621 8.24464,-14.47136 1.5537,-1.08882 2.87199,-2.35606 4.17869,-3.5346 z m -5.6621,4.41994 c 0.10066,3.97758 -3.78035,12.83965 -8.46914,13.08227 -1.11847,0.0579 -2.68894,-0.80428 -4.00581,-1.95268 -1.39258,-1.41033 -2.77697,-3.56158 -2.486,-5.54467 2.94298,0.0215 7.90804,-1.83978 10.04397,-2.8306 0.25125,-0.11791 0.49716,-0.23676 0.73826,-0.35633 1.41735,-0.70299 2.80207,-1.50669 4.17873,-2.39797 z m -34.21289,1.74743 c -0.69203,0.79877 -1.16011,1.05199 -0.70903,2.50349 0.79226,-0.0455 1.28888,-0.4939 1.56852,-0.96467 0.26362,-0.44378 0.0881,-1.12444 -0.0167,-1.56167 -0.27518,-0.25829 -0.52963,-0.0258 -0.84281,0.0229 z m -9.32962,0.96533 c -0.004,0.64326 0.008,0.82299 0.075,1.53087 0.94853,0.68405 1.04327,0.76702 1.64457,0.85199 -0.076,-0.39853 -0.0867,-0.86264 -0.36281,-1.36115 -0.27133,-0.42775 -0.88758,-0.76049 -1.35673,-1.02172 z m 27.74689,2.92451 c -0.44696,3.28069 0.95213,5.77015 3.81678,7.02314 1.80296,0.76025 3.52366,0.69266 3.23751,0.77184 -4.72959,1.65396 -10.63357,-1.60897 -12.04793,-6.7667 0.82044,-0.70772 1.40983,-1.24615 2.32371,-1.47445 0.81599,-0.12497 2.33504,-0.15114 2.66993,0.44617 z m 12.41955,9.91181 c -0.002,0.007 -0.003,0.0102 -0.004,0.0169 -0.002,0.008 -0.003,0.0169 -0.004,0.0256 -0.37618,0.86832 -1.17903,2.17577 -1.74335,3.02274 -0.38218,-0.4629 -0.77757,-1.07401 -1.10281,-1.46445 0.93263,-0.42084 2.25558,-1.16487 2.98875,-1.6628 z"
       sodipodi:nodetypes="sssssssccccccccsscccccccssccccsccccsssscssccscccsccssssccccssccsscsccccccccccccccccssssccssscsssccccccsssccccccccccccccccccccccccccccccccssssscccccscccccccccccccccccssscccscccscccccccccccccscccccccscccsscccscccscccsccccscccccccc" />
  </g>
  <g
     inkscape:groupmode="layer"
     id="layer2"
     inkscape:label="Layer 3" />
</svg>
