<?xml version="1.0" encoding="UTF-8" standalone="no"?>
<!-- Created with Inkscape (http://www.inkscape.org/) -->

<svg
   width="600"
   height="600"
   viewBox="0 0 158.75 158.75"
   version="1.1"
   id="svg45474"
   inkscape:version="1.2.1 (9c6d41e410, 2022-07-14)"
   sodipodi:docname="treecko logo cefa05.svg"
   xmlns:inkscape="http://www.inkscape.org/namespaces/inkscape"
   xmlns:sodipodi="http://sodipodi.sourceforge.net/DTD/sodipodi-0.dtd"
   xmlns="http://www.w3.org/2000/svg"
   xmlns:svg="http://www.w3.org/2000/svg">
  <sodipodi:namedview
     id="namedview45476"
     pagecolor="#ffffff"
     bordercolor="#000000"
     borderopacity="0.25"
     inkscape:showpageshadow="2"
     inkscape:pageopacity="0.0"
     inkscape:pagecheckerboard="0"
     inkscape:deskcolor="#d1d1d1"
     inkscape:document-units="mm"
     showgrid="false"
     inkscape:zoom="2"
     inkscape:cx="231.5"
     inkscape:cy="310"
     inkscape:window-width="2256"
     inkscape:window-height="1398"
     inkscape:window-x="-11"
     inkscape:window-y="-11"
     inkscape:window-maximized="1"
     inkscape:current-layer="layer1" />
  <defs
     id="defs45471" />
  <g
     inkscape:label="Layer 1"
     inkscape:groupmode="layer"
     id="layer1">
    <path
       id="path-1-2"
       style="display:inline;fill:#cefa05;fill-rule:nonzero;stroke:none;stroke-width:0.264583;fill-opacity:1"
       d="m 79.375001,21.001302 c -32.75052,0 -59.325063,26.136879 -59.325063,58.373699 0,32.236819 26.574543,58.373699 59.325063,58.373699 32.750509,0 59.325059,-26.13688 59.325059,-58.373699 0,-32.23682 -26.57455,-58.373699 -59.325059,-58.373699 z m 0,1.32292 c 32.047149,0 58.002139,25.540701 58.002139,57.050779 0,16.365775 -7.01229,31.110129 -18.23248,41.513229 -0.023,-0.031 -0.0489,-0.0598 -0.0775,-0.0858 -5.67519,-5.67334 -11.86491,-4.91261 -11.02777,-14.46889 0.40192,-3.05538 2.27104,-5.73452 3.43648,-8.051186 2.26583,-4.955315 3.81374,-10.416574 4.16099,-15.523082 0.20202,-3.200903 0.0143,-6.440435 -0.47801,-9.688298 -2.51375,-10.82403 -6.1842,-23.688866 -11.89953,-32.200101 -2.10272,-2.880154 -4.570909,-5.85474 -6.886919,-8.224306 -1.87352,-1.909185 -3.57754,-3.276748 -5.03277,-4.281908 -0.59527,-0.411173 -1.12623,-0.745945 -1.56941,-1.011309 -2.00213,-1.198808 -3.6467,-1.831108 -4.32635,-2.082558 -0.99736,-0.1105 -2.33814,0.22176 -3.27577,0.77308 -0.0103,0.006 -0.0207,0.0132 -0.0305,0.0202 -2.99763,2.407031 -5.76389,5.499325 -7.45329,8.667689 -1.22462,-1.457801 -2.67069,-2.959568 -3.96152,-3.985802 -1.50351,-1.167786 -3.20851,-2.057186 -4.9475,-2.421041 -0.0489,-0.0099 -0.099,-0.01463 -0.14883,-0.01291 -1.04391,0.03591 -1.92683,0.319545 -2.65461,0.681095 -0.10102,0.05018 -0.19896,0.102484 -0.29456,0.155546 -0.68347,0.379341 -1.29614,0.858989 -1.84743,1.379244 -2.22625,2.200135 -3.94183,4.936315 -5.18056,7.757149 -1.81545,4.245094 -2.42376,9.155594 -2.99982,13.293762 -1.2e-4,7.94e-4 2e-5,0.0019 0,0.0026 -0.7976,5.955557 -0.2677,11.601775 0.0346,14.334011 0.20509,1.853443 0.42488,3.323709 0.5793,4.317047 -1.71944,3.506052 -2.11897,8.07711 -1.12603,11.426177 0.003,0.01127 0.007,0.02249 0.0114,0.03359 0.19846,0.551151 0.3597,0.991256 0.57682,1.306512 -1.34535,0.48935 -3.08421,1.356519 -4.89698,3.127325 -0.91265,0.89153 -1.81062,1.998919 -2.58744,3.343984 -0.38981,0.67496 -0.77588,1.456312 -1.11466,2.341975 -0.70466,1.842202 -1.215,4.160957 -1.06815,6.781499 0.11991,2.139776 0.68813,4.498926 1.99678,6.772716 1.04792,1.92985 2.38388,3.53376 4.01939,4.7687 1.52423,1.15091 3.26453,1.94731 5.18418,2.40709 1.83291,0.439 3.79624,0.56334 5.83789,0.42064 3.2043,-0.34674 5.83019,-0.59503 8.31112,-2.4045 0.63872,-0.46925 1.2136,-0.97911 1.74615,-1.49242 0.16667,-0.16065 0.30922,-0.31548 0.4687,-0.47594 0.004,0.0128 0.009,0.0283 0.0134,0.0408 0.55019,0.73018 1.0434,1.61608 1.45418,2.51509 0.0562,0.12289 0.11198,0.24301 0.16381,0.34882 0.0498,0.10159 0.10353,0.20648 0.15555,0.29404 l -0.016,-0.0227 c 0.86992,1.34621 2.00195,2.61735 3.37396,3.7114 1.0278,0.81957 2.19693,1.54411 3.48196,2.10943 0.29471,0.12965 0.60272,0.25446 0.92397,0.37155 1.43793,0.52412 3.13328,0.89553 4.97644,0.88419 1.03384,-0.006 2.10012,-0.13444 3.17035,-0.41445 0.005,0.003 0.0103,0.007 0.0155,0.01 h 5.2e-4 c 0.89986,0.63869 1.25417,1.67817 1.79576,2.48047 -0.44425,0.54457 -0.92397,1.08909 -1.44435,1.63504 -1.83595,1.92618 -3.93481,3.64504 -5.97897,5.23379 -0.007,0.006 -0.0151,0.012 -0.0222,0.0181 -3.43592,2.64785 -7.62058,6.58821 -9.91154,8.24291 -28.9343,-3.22323 -51.402026,-27.35882 -51.402026,-56.673115 0,-31.510078 25.954986,-57.050783 58.002146,-57.050783 z m 9.73067,6.139676 c 0.42239,0.252915 0.9288,0.572087 1.4981,0.965316 1.39034,0.960342 3.03149,2.27556 4.84518,4.123777 2.8963,3.093789 5.735079,6.928779 7.836729,10.229869 4.68323,8.65419 9.23633,20.627234 10.65723,29.473651 0.48724,3.173418 0.6751,6.324926 0.48525,9.427848 -0.68476,5.424945 -1.59349,10.185358 -4.0044,15.0735 -1.40894,2.760211 -3.18712,5.539001 -3.53157,8.454781 -0.14663,9.91794 3.58446,8.93692 9.46771,13.92898 0.88005,0.75899 1.35839,1.15842 1.91409,1.55391 -4.1626,3.70379 -8.87569,6.81895 -14.00276,9.21856 -0.34991,-0.9865 -1.00356,-2.50161 -1.35185,-4.86327 -0.59137,-4.24089 -0.37299,-7.31734 -0.75655,-11.3683 -0.18699,-1.92985 -0.44592,-4.69527 -0.94929,-6.5226 2.1994,-5.1654 2.50655,-9.080819 2.34352,-14.847156 0.7756,-0.86868 2.31254,-2.910366 2.45656,-3.077199 -2.52294,2.305735 -11.246539,8.010379 -15.389619,10.025095 -5.35736,2.27994 -7.55368,3.1343 -12.6137,2.55798 -0.85449,-0.0925 -1.64267,-0.0459 -2.3797,0.12558 -0.72082,0.16765 -1.3717,0.44962 -1.97507,0.81235 -0.59116,0.35539 -1.13077,0.78492 -1.64279,1.25057 -1.00855,0.91718 -1.91964,1.97895 -2.92541,2.95641 -0.49951,0.48546 -1.01967,0.94858 -1.58491,1.36736 -2.12684,1.57212 -5.14448,1.95381 -7.51221,2.13785 -1.91621,0.13997 -3.72575,0.0267 -5.38933,-0.36587 -1.737979,-0.41012 -3.29271,-1.11897 -4.647779,-2.13527 -1.456101,-1.09207 -2.667541,-2.52784 -3.63389,-4.29844 -0.003,-0.005 -0.006,-0.0112 -0.009,-0.0165 -1.19025,-2.05317 -1.7134,-4.19049 -1.82728,-6.140713 -0.13943,-2.387794 0.32566,-4.51942 0.96377,-6.196521 0.30844,-0.810667 0.659949,-1.524579 1.01492,-2.140953 0.70739,-1.228317 1.52398,-2.235827 2.349729,-3.042708 2.781751,-2.797577 5.81929,-3.318819 8.84384,-4.21246 -2.21012,-5.507913 -3.358159,-11.540371 -3.98574,-17.112848 -0.30039,-2.714741 -0.81787,-8.261159 -0.0372,-14.091647 0.72634,-4.707062 1.16148,-8.931899 2.92696,-13.034346 0.88461,-2.074489 2.13901,-3.770728 3.47627,-5.44463 0.50507,-0.630089 1.04957,-1.254572 1.64124,-1.801955 0.50176,-0.464196 1.03503,-0.870932 1.60766,-1.183908 0.0799,-0.04368 0.16143,-0.08575 0.24494,-0.126608 0.5809,-0.284221 1.2637,-0.501378 2.06344,-0.537951 1.65384,0.379643 3.11541,1.211228 4.33824,2.167311 1.85732,1.319138 2.61214,2.545336 3.96046,4.022714 -4.78245,8.966914 -6.7361,17.359249 -7.09973,26.759439 0.10441,7.192206 0.55872,12.848775 2.17089,17.725996 0.15446,0.845511 -0.31856,-1.834745 -0.43253,-2.686658 -0.0364,-0.230027 -0.10727,-0.679506 -0.19121,-1.209747 -7.9e-4,-0.0045 -0.002,-0.009 -0.003,-0.01344 -0.0724,-0.403489 -0.15238,-0.85036 -0.231,-1.288293 -0.37439,-3.598809 -0.38232,-10.524667 -0.26303,-13.970722 1.42677,-11.21355 3.98323,-20.627395 10.13743,-29.185298 2.37267,-2.873134 4.979951,-7.083402 11.125821,-3.442798 z M 101.708,63.920646 c -0.11659,-0.0084 -0.23333,0.01408 -0.33848,0.06511 -5.358139,1.926662 -9.087239,4.072718 -14.664219,7.695137 -0.006,0.0032 2.91111,-1.770912 -0.0181,0.0098 -2.79806,1.601827 -5.62888,3.881038 -7.90753,5.44618 -0.66483,1.253215 1.8617,7.393445 2.31252,8.185547 1.92358,3.057819 4.45829,5.570408 6.9603,7.148917 2.53695,1.294675 6.16889,1.921344 8.66051,1.243889 1.31145,-0.366597 2.58585,-0.975379 3.628199,-1.8433 2.878,-2.734482 3.97334,-8.227975 4.13153,-11.593607 0.0406,-4.25431 -0.14504,-8.289624 -0.96584,-12.216307 -0.23412,-1.043234 -1.21705,-4.015007 -1.79886,-4.141351 z m -0.29094,1.516706 c 1.85797,8.182319 4.69127,24.420435 -5.004859,27.202989 -8.54962,1.901526 -15.435,-7.992999 -16.43052,-14.712796 0.31555,-0.217302 0.7061,-0.49045 1.29088,-0.913641 2.89619,-2.125665 5.70765,-3.553976 8.35297,-5.005379 0.25638,4.233161 0.71605,8.400248 2.00195,11.847856 0.005,0.02392 0.01,0.0476 0.015,0.07131 0.0195,0.08909 0.043,0.18007 0.0698,0.27182 0.043,0.147291 0.0964,0.302191 0.15761,0.462502 0.1152,0.301485 0.26519,0.635857 0.44442,0.982369 0.16746,0.323757 0.36492,0.66707 0.58446,1.00149 0.20628,0.314214 0.44113,0.634344 0.69505,0.921906 0.23604,0.267317 0.52185,0.544928 0.84594,0.752409 0.40368,0.249629 0.87666,0.386244 1.30638,0.335381 0.56735,-0.102397 0.99953,-0.423373 1.27899,-0.884701 0.25648,-0.451511 0.3801,-0.958278 0.44804,-1.424717 0.002,-0.0126 0.0238,-0.03335 0.0252,-0.04599 0.0317,-0.30493 0.21983,-2.894991 -0.0378,-6.253885 -0.25764,-3.358896 -0.58403,-6.870316 -1.66929,-9.235286 -0.21743,-0.493554 -0.70582,-1.183426 -1.30891,-1.587905 -0.56203,-0.415258 5.30347,-3.111635 5.804069,-3.280338 0.38227,-0.15965 0.82171,-0.32125 1.18914,-0.353391 z m -8.164869,5.981028 c 0.46342,1.009896 0.53636,2.316966 0.45777,3.343465 -0.006,0.208619 -0.0317,0.471355 -0.0589,0.602549 -0.0864,0.352155 -0.25441,0.543396 -0.49798,0.537067 -0.31921,-0.008 -0.70007,-0.592672 -0.87253,-0.976897 -0.001,-7.94e-4 -0.003,-0.0027 -0.004,-0.0036 -0.42657,-1.217488 -0.64671,-3.54136 -0.0274,-4.248827 0.53702,-0.310494 0.86224,0.390416 1.00318,0.746268 z m -39.72471,2.635498 c 0.19363,0.93607 0.45388,1.977253 0.81442,3.079917 10e-4,0.003 0.002,0.0063 0.003,0.0093 0.56965,1.656657 1.24519,3.369456 1.81797,4.925798 -0.17143,0.04315 -0.35541,0.09186 -0.52658,0.137975 -0.29459,0.07938 -0.76831,0.210508 -0.93121,0.255284 -0.0897,0.02466 -0.17293,0.04751 -0.2527,0.06925 -0.0487,0.01328 -0.0733,0.01963 -0.1173,0.03152 -0.028,-0.07068 -0.0665,-0.136716 -0.11421,-0.195855 -1.49214,-2.266379 -1.11747,-5.910353 -0.71985,-8.176244 0.008,-0.04434 0.018,-0.09189 0.0263,-0.136943 z m 49.747869,19.546094 c 0.0255,5.687039 -1.17281,9.940658 -3.15227,14.281818 -0.0275,0.0602 -0.0527,0.1226 -0.0579,0.18862 -0.005,0.066 0.01,0.13171 0.0284,0.19533 0.52144,1.80503 0.82973,3.67168 1.03198,5.63067 0.51536,3.99842 0.26664,8.23554 0.76946,11.83907 0.37411,2.48839 1.08668,4.55284 1.45676,5.58725 -7.309009,3.26805 -15.421589,5.10305 -23.976829,5.10305 -4.468279,-0.0937 -5.68426,0.1538 -2.30167,-2.49597 1.34588,-1.05437 4.730241,-3.114 7.202661,-5.19452 5.05543,-3.78084 10.83829,-10.23735 10.12673,-13.50439 1.12258,-0.64468 3.65758,-6.23028 2.64096,-5.27791 -0.52283,0.66504 -2.3318,2.75028 -3.85868,3.95066 -8.12778,5.27587 -15.00685,3.44993 -19.69699,-2.8882 -0.003,-0.004 -0.005,-0.008 -0.007,-0.0119 -0.001,-0.002 -0.003,-0.004 -0.004,-0.006 -0.002,-0.002 -0.003,-0.003 -0.005,-0.005 -0.0348,-0.0273 -0.0873,-0.0843 -0.14572,-0.15761 -0.75173,-1.06522 -1.25443,-2.08056 -1.82367,-3.13883 0.15526,-0.16145 1.54608,-1.2921 1.73974,-1.4506 1.79478,6.35545 7.30334,10.84103 15.98064,7.72203 6.70935,-3.1176 8.65723,-10.27801 9.32606,-16.369518 1.757498,-1.231638 3.248698,-2.665098 4.726798,-3.998222 z m -6.404779,4.999696 c 0.11387,4.499282 -4.2762,14.523762 -9.58001,14.798222 -1.26517,0.0655 -3.04164,-0.90978 -4.53124,-2.20881 -1.57524,-1.59533 -3.14121,-4.02875 -2.81208,-6.27196 3.329,0.0243 8.94532,-2.08109 11.36141,-3.20187 0.28421,-0.13338 0.56237,-0.26781 0.83509,-0.40307 1.60326,-0.79521 3.16961,-1.704301 4.72684,-2.712499 z m -38.70049,1.976612 c -0.7828,0.90356 -1.31227,1.18999 -0.80203,2.83187 0.89618,-0.0515 1.45794,-0.55869 1.77426,-1.0912 0.2982,-0.502 0.0997,-1.27192 -0.0189,-1.7665 -0.31127,-0.29218 -0.5991,-0.0292 -0.95336,0.0259 z m -10.55335,1.09195 c -0.004,0.72763 0.009,0.93095 0.0848,1.73167 1.07295,0.77377 1.18011,0.86763 1.86028,0.96376 -0.086,-0.45081 -0.0981,-0.9758 -0.41039,-1.5397 -0.30693,-0.48385 -1.00401,-0.86023 -1.53469,-1.15573 z m 31.38636,3.30812 c -0.50558,3.71101 1.07702,6.527 4.31742,7.94433 2.03945,0.85997 3.98584,0.78353 3.66216,0.8731 -5.34995,1.87089 -12.02834,-1.82003 -13.62822,-7.65428 0.92805,-0.80055 1.59475,-1.40961 2.62851,-1.66785 0.92301,-0.14137 2.64131,-0.17097 3.02013,0.5047 z m 14.04859,11.21191 c -0.002,0.008 -0.003,0.0116 -0.004,0.0191 -0.002,0.009 -0.003,0.0191 -0.005,0.0289 -0.42552,0.98222 -1.33368,2.46116 -1.97202,3.41922 -0.43231,-0.5236 -0.87956,-1.21488 -1.24746,-1.65652 1.05496,-0.47605 2.551441,-1.31767 3.38078,-1.88092 z"
       sodipodi:nodetypes="sssssssccccccccsscccccccssccccsccccsssscssccscccsccssssccccssccsscsccccccccccccccccssssccssscsssccccccsssccccccccccccccccccccccccccccccccssssscccccscccccccccccccccccssscccscccscccccccccccccscccccccscccsscccscccscccsccccscccccccc" />
  </g>
</svg>
